<svg width="34" height="32" viewBox="0 0 34 32" fill="none" xmlns="http://www.w3.org/2000/svg">
<g clip-path="url(#clip0_4_529)">
<path d="M28.3333 10.0417C27.5069 10.3889 26.6141 10.625 25.6549 10.75C26.6584 10.1944 27.3446 9.38194 27.7135 8.3125C26.7543 8.84028 25.7656 9.19444 24.7474 9.375C23.8472 8.45833 22.7183 8 21.3607 8C20.0768 8 18.9811 8.42708 18.0736 9.28125C17.166 10.1354 16.7122 11.1667 16.7122 12.375C16.7122 12.7778 16.7491 13.1111 16.8229 13.375C14.9193 13.2778 13.1337 12.8264 11.4661 12.0208C9.79861 11.2153 8.38194 10.1389 7.21615 8.79167C6.78819 9.48611 6.57422 10.2222 6.57422 11C6.57422 12.5833 7.24566 13.7986 8.58854 14.6458C7.89497 14.6319 7.15712 14.4514 6.375 14.1042V14.1458C6.375 15.1875 6.74392 16.1146 7.48177 16.9271C8.21962 17.7396 9.12717 18.2431 10.2044 18.4375C9.77647 18.5486 9.40017 18.6042 9.07552 18.6042C8.88368 18.6042 8.59592 18.5764 8.21224 18.5208C8.52213 19.3958 9.07183 20.1181 9.86133 20.6875C10.6508 21.2569 11.5473 21.5486 12.5508 21.5625C10.839 22.8125 8.91319 23.4375 6.77344 23.4375C6.38976 23.4375 6.02083 23.4167 5.66667 23.375C7.85069 24.6806 10.2266 25.3333 12.7943 25.3333C14.447 25.3333 15.9965 25.0868 17.4427 24.5938C18.8889 24.1007 20.1285 23.441 21.1615 22.6146C22.1944 21.7882 23.0835 20.8368 23.8288 19.7604C24.574 18.684 25.1274 17.559 25.4889 16.3854C25.8505 15.2118 26.0312 14.0417 26.0312 12.875C26.0312 12.625 26.0239 12.4375 26.0091 12.3125C26.9388 11.6875 27.7135 10.9306 28.3333 10.0417ZM34 6V26C34 27.6528 33.3765 29.066 32.1296 30.2396C30.8826 31.4132 29.3811 32 27.625 32H6.375C4.61892 32 3.1174 31.4132 1.87044 30.2396C0.623481 29.066 0 27.6528 0 26V6C0 4.34722 0.623481 2.93403 1.87044 1.76042C3.1174 0.586806 4.61892 0 6.375 0H27.625C29.3811 0 30.8826 0.586806 32.1296 1.76042C33.3765 2.93403 34 4.34722 34 6Z" fill="#66FC6C"/>
</g>
<defs>
<clipPath id="clip0_4_529">
<rect width="34" height="32" fill="white"/>
</clipPath>
</defs>
</svg>
