<svg width="32" height="32" viewBox="0 0 32 32" fill="none" xmlns="http://www.w3.org/2000/svg">
<g clip-path="url(#clip0_4_531)">
<path d="M20.9113 0H11.0883C2.12427 0 -0.000732422 2.125 -0.000732422 11.089V20.912C-0.000732422 29.876 2.12427 32.001 11.0883 32.001H20.9113C29.8753 32.001 32.0003 29.876 32.0003 20.912V11.089C32.0003 2.125 29.8543 0 20.9113 0ZM25.8333 22.828H23.5103C22.6303 22.828 22.3593 22.13 20.7763 20.526C19.4013 19.193 18.7923 19.016 18.4533 19.016C17.9743 19.016 17.8383 19.151 17.8383 19.808V21.907C17.8383 22.47 17.6613 22.808 16.1713 22.808C13.7073 22.808 10.9733 21.318 9.05627 18.542C6.16527 14.474 5.37427 11.427 5.37427 10.797C5.37427 10.458 5.50927 10.141 6.16027 10.141H8.48827C9.07727 10.141 9.30127 10.412 9.53027 11.042C10.6813 14.365 12.5983 17.276 13.3893 17.276C13.6813 17.276 13.8163 17.141 13.8163 16.396V12.964C13.7273 11.381 12.8943 11.245 12.8943 10.683C12.8943 10.412 13.1183 10.141 13.4773 10.141H17.1383C17.6333 10.141 17.8153 10.412 17.8153 10.995V15.625C17.8153 16.125 18.0393 16.302 18.1743 16.302C18.4663 16.302 18.7163 16.125 19.2573 15.583C20.9293 13.708 22.1273 10.817 22.1273 10.817C22.2833 10.478 22.5543 10.161 23.1433 10.161H25.4713C26.1693 10.161 26.3253 10.52 26.1693 11.02C25.8773 12.374 23.0283 16.395 23.0283 16.395C22.7833 16.801 22.6893 16.978 23.0283 17.431C23.2783 17.77 24.0913 18.473 24.6323 19.103C25.6273 20.233 26.3923 21.181 26.5963 21.837C26.8253 22.488 26.4873 22.827 25.8303 22.827L25.8333 22.828Z" fill="#66FC6C"/>
</g>
<defs>
<clipPath id="clip0_4_531">
<rect width="32" height="32" fill="white"/>
</clipPath>
</defs>
</svg>
