<svg width="10" height="10" viewBox="0 0 10 10" fill="none" xmlns="http://www.w3.org/2000/svg">
<path d="M8.75324 3.07512C8.80174 3.1235 8.84022 3.18098 8.86648 3.24425C8.89273 3.30753 8.90625 3.37536 8.90625 3.44387C8.90625 3.51238 8.89273 3.58021 8.86648 3.64349C8.84022 3.70677 8.80174 3.76424 8.75324 3.81262L5.29074 7.27512C5.25219 7.31375 5.2064 7.34439 5.156 7.3653C5.10559 7.38621 5.05156 7.39697 4.99699 7.39697C4.94242 7.39697 4.88838 7.38621 4.83798 7.3653C4.78757 7.34439 4.74178 7.31375 4.70324 7.27512L1.24073 3.81262C1.03657 3.60845 1.03657 3.27929 1.24073 3.07512C1.4449 2.87095 1.77407 2.87095 1.97824 3.07512L4.99907 6.09179L8.0199 3.07095C8.2199 2.87095 8.55324 2.87095 8.75324 3.07512Z" fill="#FEFEFE"/>
</svg>
