<svg width="24" height="24" viewBox="0 0 24 24" fill="none" xmlns="http://www.w3.org/2000/svg">
<path d="M2 12C2 17.523 6.477 22 12 22C17.523 22 22 17.523 22 12C22 6.477 17.523 2 12 2C6.477 2 2 6.477 2 12Z" stroke="#E9E9E9" stroke-width="1.5" stroke-linecap="round" stroke-linejoin="round"/>
<path d="M13.0028 2.0498C13.0028 2.0498 16.0028 5.9998 16.0028 11.9998C16.0028 17.9998 13.0028 21.9498 13.0028 21.9498M11.0028 21.9498C11.0028 21.9498 8.00281 17.9998 8.00281 11.9998C8.00281 5.9998 11.0028 2.0498 11.0028 2.0498M2.63281 15.4998H21.3728M2.63281 8.4998H21.3728" stroke="#E9E9E9" stroke-width="1.5" stroke-linecap="round" stroke-linejoin="round"/>
</svg>
