<svg width="15" height="26" viewBox="0 0 15 26" fill="none" xmlns="http://www.w3.org/2000/svg">
<path d="M0.841947 25.0133C0.996765 25.1685 1.18068 25.2916 1.38317 25.3757C1.58565 25.4597 1.80272 25.5029 2.02195 25.5029C2.24117 25.5029 2.45824 25.4597 2.66073 25.3757C2.86321 25.2916 3.04713 25.1685 3.20195 25.0133L14.282 13.9333C14.4056 13.8099 14.5036 13.6634 14.5705 13.5021C14.6374 13.3408 14.6719 13.1679 14.6719 12.9933C14.6719 12.8187 14.6374 12.6457 14.5705 12.4845C14.5036 12.3232 14.4056 12.1766 14.282 12.0533L3.20195 0.973281C2.54862 0.319947 1.49528 0.319947 0.841949 0.973281C0.188615 1.62661 0.188615 2.67995 0.841949 3.33328L10.4953 13L0.828615 22.6666C0.188616 23.3066 0.188613 24.3733 0.841947 25.0133Z" fill="#292929"/>
</svg>
