<svg width="16" height="10" viewBox="0 0 16 10" fill="none" xmlns="http://www.w3.org/2000/svg">
<path d="M15.5065 1.15024C15.6035 1.247 15.6804 1.36195 15.733 1.4885C15.7855 1.61506 15.8125 1.75073 15.8125 1.88774C15.8125 2.02476 15.7855 2.16043 15.733 2.28698C15.6804 2.41353 15.6035 2.52848 15.5065 2.62524L8.58147 9.55024C8.50438 9.62749 8.4128 9.68878 8.31199 9.7306C8.21118 9.77242 8.10311 9.79394 7.99397 9.79394C7.88483 9.79394 7.77676 9.77242 7.67595 9.7306C7.57514 9.68878 7.48357 9.62749 7.40647 9.55024L0.481469 2.62524C0.0731367 2.21691 0.0731367 1.55857 0.48147 1.15024C0.889803 0.741906 1.54814 0.741906 1.95647 1.15024L7.99814 7.18357L14.0398 1.14191C14.4398 0.741909 15.1065 0.741907 15.5065 1.15024Z" fill="#66FC6C"/>
</svg>
