<svg width="30" height="36" viewBox="0 0 30 36" fill="none" xmlns="http://www.w3.org/2000/svg">
<path d="M11.6667 32.0002H18.3333C18.3333 33.8335 16.8333 35.3335 15 35.3335C13.1667 35.3335 11.6667 33.8335 11.6667 32.0002ZM30 28.6668V30.3335H0V28.6668L3.33333 25.3335V15.3335C3.33333 10.1668 6.66667 5.66683 11.6667 4.16683V3.66683C11.6667 1.8335 13.1667 0.333496 15 0.333496C16.8333 0.333496 18.3333 1.8335 18.3333 3.66683V4.16683C23.3333 5.66683 26.6667 10.1668 26.6667 15.3335V25.3335L30 28.6668ZM23.3333 15.3335C23.3333 10.6668 19.6667 7.00016 15 7.00016C10.3333 7.00016 6.66667 10.6668 6.66667 15.3335V27.0002H23.3333V15.3335Z" fill="#66FC6C"/>
</svg>
