<svg width="35" height="35" viewBox="0 0 35 35" fill="none" xmlns="http://www.w3.org/2000/svg">
<path d="M9.40365 14.8019C12.3837 14.8019 14.7995 12.3861 14.7995 9.40609C14.7995 6.42605 12.3837 4.01025 9.40365 4.01025C6.42361 4.01025 4.00781 6.42605 4.00781 9.40609C4.00781 12.3861 6.42361 14.8019 9.40365 14.8019Z" stroke="#66FC6C" stroke-width="3" stroke-linecap="round" stroke-linejoin="round"/>
<path d="M9.40365 30.9894C12.3837 30.9894 14.7995 28.5736 14.7995 25.5936C14.7995 22.6135 12.3837 20.1978 9.40365 20.1978C6.42361 20.1978 4.00781 22.6135 4.00781 25.5936C4.00781 28.5736 6.42361 30.9894 9.40365 30.9894Z" stroke="#66FC6C" stroke-width="3" stroke-linecap="round" stroke-linejoin="round"/>
<path d="M25.5911 30.9894C28.5712 30.9894 30.987 28.5736 30.987 25.5936C30.987 22.6135 28.5712 20.1978 25.5911 20.1978C22.6111 20.1978 20.1953 22.6135 20.1953 25.5936C20.1953 28.5736 22.6111 30.9894 25.5911 30.9894Z" stroke="#66FC6C" stroke-width="3" stroke-linecap="round" stroke-linejoin="round"/>
<path d="M30.219 4.78125L20.9688 14.0315M30.219 14.0315L20.9688 4.78125" stroke="#45A254" stroke-width="3" stroke-linecap="round" stroke-linejoin="round"/>
</svg>
