<svg width="30" height="36" viewBox="0 0 30 36" fill="none" xmlns="http://www.w3.org/2000/svg">
<path d="M11.6667 32H18.3333C18.3333 33.8333 16.8333 35.3333 15 35.3333C13.1667 35.3333 11.6667 33.8333 11.6667 32ZM30 28.6667V30.3333H0V28.6667L3.33333 25.3333V15.3333C3.33333 10.1667 6.66667 5.66668 11.6667 4.16668V3.66668C11.6667 1.83334 13.1667 0.333344 15 0.333344C16.8333 0.333344 18.3333 1.83334 18.3333 3.66668V4.16668C23.3333 5.66668 26.6667 10.1667 26.6667 15.3333V25.3333L30 28.6667ZM23.3333 15.3333C23.3333 10.6667 19.6667 7.00001 15 7.00001C10.3333 7.00001 6.66667 10.6667 6.66667 15.3333V27H23.3333V15.3333Z" fill="#66FC6C"/>
</svg>
