<svg width="24" height="24" viewBox="0 0 24 24" fill="none" xmlns="http://www.w3.org/2000/svg">
<path d="M19.141 5C20.9765 6.86724 22.0034 9.38172 22 12C22.0017 13.3118 21.7444 14.611 21.243 15.8232C20.7416 17.0354 20.0059 18.1367 19.078 19.064M5.00001 19.142C4.04874 18.2119 3.29323 17.1009 2.778 15.8743C2.26278 14.6477 1.99825 13.3304 2.00001 12C1.99833 10.6849 2.25688 9.3824 2.76078 8.16764C3.26467 6.95287 4.00394 5.84981 4.93601 4.922M16.285 8.044C17.345 9.059 18 10.449 18 11.982C18 13.534 17.33 14.939 16.247 15.956M7.80001 16C6.69001 14.979 6.00001 13.556 6.00001 11.982C6.00001 10.427 6.67301 9.018 7.76201 8" stroke="#E9E9E9" stroke-width="1.5" stroke-linecap="round" stroke-linejoin="round"/>
<path d="M13.656 10.451C14.552 11.11 15 11.438 15 12C15 12.562 14.552 12.891 13.656 13.549C13.4222 13.7219 13.1828 13.887 12.938 14.044C12.7243 14.1774 12.5065 14.3041 12.285 14.424C11.391 14.914 10.945 15.159 10.544 14.888C10.143 14.617 10.106 14.05 10.034 12.917C10.014 12.596 10 12.282 10 12C10 11.718 10.013 11.404 10.034 11.083C10.106 9.95 10.143 9.383 10.544 9.113C10.944 8.841 11.391 9.086 12.284 9.575C12.517 9.702 12.741 9.831 12.938 9.956C13.164 10.099 13.409 10.27 13.656 10.451Z" stroke="#E9E9E9" stroke-width="1.5"/>
</svg>
