<svg width="24" height="21" viewBox="0 0 24 21" fill="none" xmlns="http://www.w3.org/2000/svg">
<g clip-path="url(#clip0_0_105)">
<path d="M6.36666 1.52579C5.02499 3.08848 4.02916 4.91368 3.45416 6.87833C3.45416 6.88653 3.44999 6.89063 3.44999 6.89884C1.81249 7.56329 0.666656 9.14649 0.666656 10.9922C0.666656 13.4367 2.68332 15.4219 5.16666 15.4219C7.64999 15.4219 9.66666 13.4367 9.66666 10.9922C9.66666 8.79786 8.04582 6.97676 5.91666 6.62403C6.57082 4.90958 7.59999 3.35919 8.92916 2.0836C9.00416 2.01798 9.09582 1.97696 9.19166 1.95645C10.7417 1.48477 12.3875 1.41094 13.975 1.74317C18.9458 2.77266 22.25 7.41153 21.5458 12.358C21.1958 14.9256 19.9375 16.9805 17.8917 18.5678C15.8042 20.1961 13.4125 20.7949 10.8 20.7088L9.79999 20.6678C10.3167 20.7826 10.8417 20.8688 11.3667 20.9262C13.0625 21.0984 14.7583 21.0123 16.3708 20.4135C20.2875 18.9574 22.5917 16.2176 23.1583 12.1078C23.3583 9.9504 22.9167 7.78477 21.875 5.87344C18.9417 0.463483 12.1167 -1.57499 6.62499 1.31251C6.52499 1.36993 6.43749 1.43966 6.36249 1.52579H6.36666ZM12.8917 17.7967C12.8042 18.2684 12.7167 18.6949 12.2833 19.0805C14.5 19.0395 17.4167 17.8828 19.025 15.0979C20.6792 12.2309 20.5917 9.35977 18.7625 6.57481C17.2417 4.30665 15.0208 3.19512 12.2375 3.02286C12.3 3.11719 12.3708 3.20333 12.4542 3.28126L12.6708 3.53966C13.7167 4.82344 14.2375 6.32462 14.4542 7.94884C14.5417 8.59278 14.4125 9.19161 13.8875 9.66329C13.7125 9.79044 13.6708 9.92169 13.7125 10.0899L14.0167 10.8158L15.2375 13.043C15.4542 13.5147 15.4125 13.8551 14.975 14.1996C14.8417 14.3022 14.6958 14.3883 14.5417 14.458L13.7583 14.8025L13.8875 15.3604C14.0167 15.6188 13.9292 15.8731 13.7583 16.0863C13.6542 16.1848 13.6 16.3283 13.6292 16.4719C13.7167 16.9436 13.5417 17.284 13.1083 17.5014C13.0208 17.5424 12.9333 17.7147 12.8917 17.8008V17.7967ZM7.32499 17.6695C8.02082 18.1412 8.76249 18.5268 9.54166 18.74C10.5417 18.9533 11.2833 18.4816 11.4125 17.4973C11.4542 17.1527 11.6292 16.8984 11.9333 16.7713C12.2375 16.599 12.2833 16.4719 12.0208 16.2135L11.6292 15.869L12.1958 15.6967C12.4583 15.6106 12.5 15.4834 12.4125 15.225C12.3542 15.102 12.3125 14.9707 12.2833 14.8395C12.1542 14.2406 12.1958 14.1955 12.7625 14.0684C13.1125 13.9412 13.4167 13.81 13.675 13.5557C13.8042 13.4695 13.8042 13.3834 13.7167 13.2111L13.0208 11.9684C12.9792 11.8904 12.9333 11.8125 12.8917 11.7346C12.625 11.2547 12.35 10.7666 12.2375 10.2129C12.15 9.82735 12.1958 9.48692 12.5875 9.22852C12.8042 9.05626 12.9375 8.84298 12.9375 8.54356C12.9208 8.1293 12.875 7.71094 12.8083 7.30079C12.5458 5.7586 11.85 4.47481 10.675 3.4043C10.4583 3.23204 10.2833 3.14591 9.97916 3.23204L8.49582 3.75294L8.74582 3.90059C9.00832 4.05235 9.25416 4.20001 9.45416 4.39688C10.7167 5.46739 11.1958 6.92344 11.3667 8.50665C11.4083 8.85118 11.3667 9.19161 11.0625 9.40489C10.7125 9.61817 10.6292 9.91759 10.7583 10.2621C10.9625 10.8035 11.1917 11.3285 11.4542 11.8453L12.15 13.043C11.8875 13.3875 11.5833 13.5147 11.2375 13.6418C10.7167 13.769 10.6292 13.9412 10.8042 14.499C10.8292 14.5606 10.8625 14.6139 10.8917 14.6713C10.9792 14.8846 10.9333 15.0158 10.7167 15.0979L10.1958 15.225L10.4125 15.3973L10.5875 15.5695C10.7625 15.7828 10.7625 15.9141 10.5 15.9961C10.1958 16.1684 10.0208 16.3816 10.0208 16.7221C10.0208 17.2348 9.71666 17.5342 9.23749 17.7065C9.07916 17.7475 8.92082 17.768 8.75832 17.7475L7.32082 17.6613L7.32499 17.6695Z" fill="#E9E9E9"/>
</g>
<defs>
<clipPath id="clip0_0_105">
<rect width="24" height="21" fill="white"/>
</clipPath>
</defs>
</svg>
