<svg width="16" height="10" viewBox="0 0 16 10" fill="none" xmlns="http://www.w3.org/2000/svg">
<path d="M15.5083 1.15C15.6053 1.24676 15.6823 1.36171 15.7348 1.48826C15.7873 1.61481 15.8143 1.75048 15.8143 1.8875C15.8143 2.02451 15.7873 2.16018 15.7348 2.28673C15.6823 2.41329 15.6053 2.52823 15.5083 2.625L8.5833 9.55C8.50621 9.62725 8.41463 9.68854 8.31382 9.73036C8.21301 9.77218 8.10494 9.7937 7.9958 9.7937C7.88666 9.7937 7.77859 9.77218 7.67778 9.73036C7.57697 9.68854 7.4854 9.62725 7.4083 9.55L0.483301 2.625C0.0749677 2.21666 0.0749677 1.55833 0.483301 1.15C0.891634 0.741662 1.54997 0.741662 1.9583 1.15L7.99997 7.18333L14.0416 1.14166C14.4416 0.741665 15.1083 0.741663 15.5083 1.15Z" fill="#66FC6C"/>
</svg>
