<svg width="24" height="21" viewBox="0 0 24 21" fill="none" xmlns="http://www.w3.org/2000/svg">
<g clip-path="url(#clip0_156_607)">
<path d="M6.36406 1.52583C5.0224 3.08853 4.02656 4.91372 3.45156 6.87837C3.45156 6.88658 3.4474 6.89068 3.4474 6.89888C1.8099 7.56333 0.664062 9.14654 0.664062 10.9922C0.664062 13.4368 2.68073 15.4219 5.16406 15.4219C7.6474 15.4219 9.66406 13.4368 9.66406 10.9922C9.66406 8.79791 8.04323 6.97681 5.91406 6.62408C6.56823 4.90962 7.5974 3.35923 8.92656 2.08365C9.00156 2.01802 9.09323 1.97701 9.18906 1.9565C10.7391 1.48482 12.3849 1.41099 13.9724 1.74322C18.9432 2.77271 22.2474 7.41158 21.5432 12.3581C21.1932 14.9256 19.9349 16.9805 17.8891 18.5678C15.8016 20.1961 13.4099 20.795 10.7974 20.7088L9.7974 20.6678C10.3141 20.7827 10.8391 20.8688 11.3641 20.9262C13.0599 21.0985 14.7557 21.0124 16.3682 20.4135C20.2849 18.9575 22.5891 16.2176 23.1557 12.1079C23.3557 9.95044 22.9141 7.78482 21.8724 5.87349C18.9391 0.463529 12.1141 -1.57495 6.6224 1.31255C6.5224 1.36997 6.4349 1.4397 6.3599 1.52583H6.36406ZM12.8891 17.7967C12.8016 18.2684 12.7141 18.695 12.2807 19.0805C14.4974 19.0395 17.4141 17.8829 19.0224 15.0979C20.6766 12.2309 20.5891 9.35982 18.7599 6.57486C17.2391 4.30669 15.0182 3.19517 12.2349 3.0229C12.2974 3.11724 12.3682 3.20337 12.4516 3.2813L12.6682 3.5397C13.7141 4.82349 14.2349 6.32466 14.4516 7.94888C14.5391 8.59283 14.4099 9.19165 13.8849 9.66333C13.7099 9.79048 13.6682 9.92173 13.7099 10.0899L14.0141 10.8159L15.2349 13.043C15.4516 13.5147 15.4099 13.8551 14.9724 14.1997C14.8391 14.3022 14.6932 14.3883 14.5391 14.4581L13.7557 14.8026L13.8849 15.3604C14.0141 15.6188 13.9266 15.8731 13.7557 16.0864C13.6516 16.1848 13.5974 16.3284 13.6266 16.4719C13.7141 16.9436 13.5391 17.284 13.1057 17.5014C13.0182 17.5424 12.9307 17.7147 12.8891 17.8008V17.7967ZM7.3224 17.6696C8.01823 18.1413 8.7599 18.5268 9.53906 18.7401C10.5391 18.9534 11.2807 18.4817 11.4099 17.4973C11.4516 17.1528 11.6266 16.8985 11.9307 16.7713C12.2349 16.5991 12.2807 16.4719 12.0182 16.2135L11.6266 15.869L12.1932 15.6967C12.4557 15.6106 12.4974 15.4835 12.4099 15.2251C12.3516 15.102 12.3099 14.9708 12.2807 14.8395C12.1516 14.2407 12.1932 14.1956 12.7599 14.0684C13.1099 13.9413 13.4141 13.81 13.6724 13.5557C13.8016 13.4696 13.8016 13.3835 13.7141 13.2112L13.0182 11.9684C12.9766 11.8905 12.9307 11.8126 12.8891 11.7346C12.6224 11.2547 12.3474 10.7667 12.2349 10.2129C12.1474 9.8274 12.1932 9.48697 12.5849 9.22857C12.8016 9.0563 12.9349 8.84302 12.9349 8.54361C12.9182 8.12935 12.8724 7.71099 12.8057 7.30083C12.5432 5.75865 11.8474 4.47486 10.6724 3.40435C10.4557 3.23208 10.2807 3.14595 9.97656 3.23208L8.49323 3.75298L8.74323 3.90064C9.00573 4.0524 9.25156 4.20005 9.45156 4.39693C10.7141 5.46744 11.1932 6.92349 11.3641 8.50669C11.4057 8.85122 11.3641 9.19165 11.0599 9.40494C10.7099 9.61822 10.6266 9.91763 10.7557 10.2622C10.9599 10.8036 11.1891 11.3286 11.4516 11.8454L12.1474 13.043C11.8849 13.3876 11.5807 13.5147 11.2349 13.6419C10.7141 13.769 10.6266 13.9413 10.8016 14.4991C10.8266 14.5606 10.8599 14.6139 10.8891 14.6713C10.9766 14.8846 10.9307 15.0159 10.7141 15.0979L10.1932 15.2251L10.4099 15.3973L10.5849 15.5696C10.7599 15.7829 10.7599 15.9141 10.4974 15.9961C10.1932 16.1684 10.0182 16.3817 10.0182 16.7221C10.0182 17.2348 9.71406 17.5342 9.2349 17.7065C9.07656 17.7475 8.91823 17.768 8.75573 17.7475L7.31823 17.6614L7.3224 17.6696Z" fill="#E9E9E9"/>
</g>
<defs>
<clipPath id="clip0_156_607">
<rect width="24" height="21" fill="white"/>
</clipPath>
</defs>
</svg>
