<svg width="24" height="24" viewBox="0 0 24 24" fill="none" xmlns="http://www.w3.org/2000/svg">
<path d="M4.77857 9.10588L5.65057 14.9999H18.3866L19.2536 9.01988L15.7606 12.0399L12.0056 7.21288L8.09657 12.0239L4.77857 9.10588ZM14.8166 7.56888L14.7386 7.63588L14.8796 7.64988L16.0466 9.14888L17.4836 7.90688L17.6236 7.92088L17.5616 7.83888L19.9746 5.75288C20.1288 5.61979 20.3201 5.53699 20.5227 5.51556C20.7253 5.49413 20.9296 5.5351 21.1083 5.63298C21.2869 5.73085 21.4315 5.88097 21.5225 6.06324C21.6135 6.24551 21.6467 6.45123 21.6176 6.65288L20.1176 16.9999H3.92457L2.40157 6.69988C2.37132 6.49711 2.40412 6.28995 2.49552 6.10645C2.58693 5.92294 2.73253 5.77197 2.91259 5.67397C3.09266 5.57597 3.2985 5.53568 3.50223 5.55856C3.70596 5.58144 3.89773 5.66638 4.05157 5.80188L6.35257 7.82688L6.30257 7.88688L6.41157 7.87888L7.85557 9.14888L9.06757 7.65588L9.17657 7.64688L9.11657 7.59488L11.2476 4.97588C11.3425 4.85919 11.4625 4.76542 11.5987 4.70155C11.7349 4.63768 11.8838 4.60536 12.0342 4.60699C12.1846 4.60863 12.3327 4.64417 12.4675 4.71099C12.6022 4.7778 12.7202 4.87415 12.8126 4.99288L14.8166 7.56888ZM4.00257 17.9999H20.0026V18.9999C20.0026 19.2651 19.8972 19.5194 19.7097 19.707C19.5221 19.8945 19.2678 19.9999 19.0026 19.9999H5.00257C4.73736 19.9999 4.483 19.8945 4.29547 19.707C4.10793 19.5194 4.00257 19.2651 4.00257 18.9999V17.9999Z" fill="#E9E9E9"/>
</svg>
