<svg width="24" height="24" viewBox="0 0 24 24" fill="none" xmlns="http://www.w3.org/2000/svg">
<path d="M12 2C17.523 2 22 6.477 22 12C22 17.523 17.523 22 12 22C6.477 22 2 17.523 2 12C2 6.477 6.477 2 12 2ZM12.16 16C11.1926 15.9989 10.2355 16.1989 9.34947 16.5872C8.46343 16.9756 7.66778 17.5439 7.013 18.256C8.42855 19.3877 10.1877 20.0029 12 20C13.8923 20.0027 15.7239 19.3321 17.167 18.108C16.5157 17.4397 15.7371 16.9089 14.877 16.5468C14.017 16.1847 13.0931 15.9988 12.16 16ZM12 4C10.5121 4.00004 9.05367 4.41502 7.78863 5.19833C6.5236 5.98163 5.50208 7.10221 4.83887 8.43414C4.17566 9.76607 3.89704 11.2566 4.03432 12.7381C4.1716 14.2197 4.71935 15.6336 5.616 16.821C6.45637 15.9289 7.47055 15.2183 8.59602 14.7332C9.72149 14.248 10.9344 13.9985 12.16 14C13.3417 13.9985 14.512 14.2304 15.6037 14.6824C16.6955 15.1344 17.6873 15.7976 18.522 16.634C19.3725 15.4371 19.8772 14.0292 19.9809 12.5646C20.0845 11.0999 19.783 9.63503 19.1095 8.33031C18.436 7.0256 17.4163 5.93141 16.1623 5.16761C14.9083 4.40381 13.4683 3.99985 12 4ZM12 5C13.0609 5 14.0783 5.42143 14.8284 6.17157C15.5786 6.92172 16 7.93913 16 9C16 10.0609 15.5786 11.0783 14.8284 11.8284C14.0783 12.5786 13.0609 13 12 13C10.9391 13 9.92172 12.5786 9.17157 11.8284C8.42143 11.0783 8 10.0609 8 9C8 7.93913 8.42143 6.92172 9.17157 6.17157C9.92172 5.42143 10.9391 5 12 5ZM12 7C11.4696 7 10.9609 7.21071 10.5858 7.58579C10.2107 7.96086 10 8.46957 10 9C10 9.53043 10.2107 10.0391 10.5858 10.4142C10.9609 10.7893 11.4696 11 12 11C12.5304 11 13.0391 10.7893 13.4142 10.4142C13.7893 10.0391 14 9.53043 14 9C14 8.46957 13.7893 7.96086 13.4142 7.58579C13.0391 7.21071 12.5304 7 12 7Z" fill="#E9E9E9"/>
</svg>
