<svg width="24" height="24" viewBox="0 0 24 24" fill="none" xmlns="http://www.w3.org/2000/svg">
<path d="M19.141 4.99988C20.9765 6.86711 22.0034 9.38159 22 11.9999C22.0017 13.3117 21.7444 14.6109 21.243 15.8231C20.7416 17.0353 20.0059 18.1366 19.078 19.0639M5.00001 19.1419C4.04874 18.2118 3.29323 17.1007 2.778 15.8742C2.26278 14.6476 1.99825 13.3303 2.00001 11.9999C1.99833 10.6847 2.25688 9.38228 2.76078 8.16751C3.26467 6.95274 4.00394 5.84968 4.93601 4.92188M16.285 8.04387C17.345 9.05887 18 10.4489 18 11.9819C18 13.5339 17.33 14.9389 16.247 15.9559M7.80001 15.9999C6.69001 14.9789 6.00001 13.5559 6.00001 11.9819C6.00001 10.4269 6.67301 9.01788 7.76201 7.99988" stroke="#E9E9E9" stroke-width="1.5" stroke-linecap="round" stroke-linejoin="round"/>
<path d="M13.656 10.4509C14.552 11.1099 15 11.4379 15 11.9999C15 12.5619 14.552 12.8909 13.656 13.5489C13.4222 13.7218 13.1828 13.8869 12.938 14.0439C12.7243 14.1773 12.5065 14.304 12.285 14.4239C11.391 14.9139 10.945 15.1589 10.544 14.8879C10.143 14.6169 10.106 14.0499 10.034 12.9169C10.014 12.5959 10 12.2819 10 11.9999C10 11.7179 10.013 11.4039 10.034 11.0829C10.106 9.9499 10.143 9.3829 10.544 9.1129C10.944 8.8409 11.391 9.0859 12.284 9.5749C12.517 9.7019 12.741 9.8309 12.938 9.9559C13.164 10.0989 13.409 10.2699 13.656 10.4509Z" stroke="#E9E9E9" stroke-width="1.5"/>
</svg>
